<svg width="40" height="40" fill="none" xmlns="http://www.w3.org/2000/svg"><g clip-path="url(#clip0_1151_140895)"><g clip-path="url(#clip1_1151_140895)"><rect width="40" height="40" rx="8" fill="#fff"/><rect width="40" height="40" rx="8" fill="url(#paint0_linear_1151_140895)"/><path fill-rule="evenodd" clip-rule="evenodd" d="M20.002 2.549C10.364 2.549 2.55 10.361 2.55 20c0 9.638 7.814 17.451 17.452 17.451 9.638 0 17.451-7.813 17.451-17.451 0-9.638-7.813-17.451-17.451-17.451zM2.453 20c0-9.692 7.857-17.549 17.549-17.549S37.55 10.308 37.55 20s-7.856 17.548-17.548 17.548C10.31 37.548 2.453 29.692 2.453 20z" fill="#D0D5DD"/><path fill-rule="evenodd" clip-rule="evenodd" d="M20 15.097a4.903 4.903 0 100 9.806 4.903 4.903 0 000-9.806zM15 20a5 5 0 1110 0 5 5 0 01-10 0z" fill="#D0D5DD"/><path fill-rule="evenodd" clip-rule="evenodd" d="M20.001 16.65a3.35 3.35 0 100 6.699 3.35 3.35 0 000-6.699zM16.555 20a3.447 3.447 0 116.893 0 3.447 3.447 0 01-6.893 0z" fill="#D0D5DD"/><path d="M19.953 0h.097v40h-.097V0z" fill="#D0D5DD"/><path d="M40 19.951v.097H0v-.097h40z" fill="#D0D5DD"/><path d="M33.254 0h.097v40h-.097V0zM13.3 0h.098v40H13.3V0zm13.302 0h.097v40h-.097V0zM6.652 0h.097v40h-.097V0z" fill="#D0D5DD"/><path d="M40 33.252v.097H0v-.097h40zM40 13.3v.098H0V13.3h40zm0 13.302v.097H0v-.097h40zM40 6.65v.097H0V6.65h40z" fill="#D0D5DD"/><g filter="url(#filter0_dd_1151_140895)"><circle cx="20" cy="20" r="10" fill="#0035BE"/></g><g filter="url(#filter1_b_1151_140895)"><path d="M0 20h40v7.2c0 4.48 0 6.72-.872 8.432a8 8 0 01-3.496 3.496C33.92 40 31.68 40 27.2 40H12.8c-4.48 0-6.72 0-8.432-.872a8 8 0 01-3.496-3.496C0 33.92 0 31.68 0 27.2V20z" fill="#fff" fill-opacity=".2"/></g></g></g><defs><clipPath id="clip0_1151_140895"><rect width="40" height="40" rx="20" fill="#fff"/></clipPath><clipPath id="clip1_1151_140895"><rect width="40" height="40" rx="8" fill="#fff"/></clipPath><filter id="filter0_dd_1151_140895" x="7" y="8" width="26" height="26" filterUnits="userSpaceOnUse" color-interpolation-filters="sRGB"><feFlood flood-opacity="0" result="BackgroundImageFix"/><feColorMatrix in="SourceAlpha" values="0 0 0 0 0 0 0 0 0 0 0 0 0 0 0 0 0 0 127 0" result="hardAlpha"/><feOffset dy="1"/><feGaussianBlur stdDeviation="1"/><feColorMatrix values="0 0 0 0 0.0627451 0 0 0 0 0.0941176 0 0 0 0 0.156863 0 0 0 0.06 0"/><feBlend in2="BackgroundImageFix" result="effect1_dropShadow_1151_140895"/><feColorMatrix in="SourceAlpha" values="0 0 0 0 0 0 0 0 0 0 0 0 0 0 0 0 0 0 127 0" result="hardAlpha"/><feOffset dy="1"/><feGaussianBlur stdDeviation="1.5"/><feColorMatrix values="0 0 0 0 0.0627451 0 0 0 0 0.0941176 0 0 0 0 0.156863 0 0 0 0.1 0"/><feBlend in2="effect1_dropShadow_1151_140895" result="effect2_dropShadow_1151_140895"/><feBlend in="SourceGraphic" in2="effect2_dropShadow_1151_140895" result="shape"/></filter><filter id="filter1_b_1151_140895" x="-5" y="15" width="50" height="30" filterUnits="userSpaceOnUse" color-interpolation-filters="sRGB"><feFlood flood-opacity="0" result="BackgroundImageFix"/><feGaussianBlur in="BackgroundImageFix" stdDeviation="2.5"/><feComposite in2="SourceAlpha" operator="in" result="effect1_backgroundBlur_1151_140895"/><feBlend in="SourceGraphic" in2="effect1_backgroundBlur_1151_140895" result="shape"/></filter><linearGradient id="paint0_linear_1151_140895" x1="20" y1="0" x2="20" y2="40" gradientUnits="userSpaceOnUse"><stop stop-color="#fff"/><stop offset="1" stop-color="#D0D5DD"/></linearGradient></defs></svg>