<svg width="193" height="50" fill="none" xmlns="http://www.w3.org/2000/svg"><path d="M61.414 41.727h-1.922l2.497-7.401h2.382l2.497 7.401h-1.923l-1.738-5.536h-.058l-1.735 5.536zm-.256-2.913h4.019v1.36h-4.02v-1.36zm10.578 2.913v-7.401h3.086c.554 0 1.018.078 1.391.235.376.156.658.376.846.657.19.282.286.609.286.98 0 .282-.06.533-.177.755-.119.22-.281.401-.488.546a1.949 1.949 0 01-.72.303v.073c.3.014.575.095.828.242.255.147.46.352.615.614.154.26.23.569.23.925 0 .398-.1.753-.303 1.067-.202.31-.495.556-.878.737-.383.178-.848.267-1.395.267h-3.321zm1.789-1.442h1.105c.388 0 .674-.073.857-.22.186-.147.278-.352.278-.614a.883.883 0 00-.133-.492.86.86 0 00-.38-.322 1.374 1.374 0 00-.589-.115h-1.138v1.763zm0-2.916h.99c.195 0 .368-.033.52-.098a.798.798 0 00.355-.282.75.75 0 00.13-.444.712.712 0 00-.264-.586c-.176-.142-.413-.213-.712-.213h-1.02v1.623zm8.798-1.59v-1.453h6.256v1.453h-2.245v5.948H84.57V35.78h-2.247zm17.848 2.248c0 .814-.157 1.504-.47 2.07a3.2 3.2 0 01-1.272 1.29c-.532.295-1.13.441-1.793.441a3.63 3.63 0 01-1.796-.444 3.237 3.237 0 01-1.268-1.29c-.311-.566-.466-1.255-.466-2.067 0-.815.155-1.505.466-2.071a3.208 3.208 0 011.268-1.29 3.654 3.654 0 011.796-.441c.663 0 1.26.147 1.793.44a3.2 3.2 0 011.272 1.29c.313.567.47 1.257.47 2.072zm-1.829 0c0-.482-.068-.89-.206-1.222-.135-.333-.33-.584-.585-.755-.253-.171-.558-.257-.915-.257-.354 0-.658.086-.914.257-.255.17-.452.422-.589.755-.135.333-.202.74-.202 1.222 0 .481.067.889.202 1.221.137.333.334.584.59.755.255.172.56.257.913.257.357 0 .662-.085.915-.257.255-.17.45-.422.585-.755.138-.332.206-.74.206-1.221zm9.745 3.801c-.564 0-1.064-.096-1.5-.289a2.53 2.53 0 01-1.026-.806 1.984 1.984 0 01-.383-1.181h1.8a.744.744 0 00.155.43.96.96 0 00.394.289c.166.07.355.105.567.105.212 0 .399-.038.561-.112a.947.947 0 00.383-.315.783.783 0 00.133-.462.73.73 0 00-.148-.463.974.974 0 00-.43-.314 1.716 1.716 0 00-.65-.112h-.72v-1.273h.72c.219 0 .412-.036.578-.108a.916.916 0 00.394-.304.744.744 0 00.137-.455.755.755 0 00-.119-.437.797.797 0 00-.336-.297 1.11 1.11 0 00-.495-.104 1.36 1.36 0 00-.539.104.917.917 0 00-.379.297.762.762 0 00-.148.444h-1.71a1.98 1.98 0 01.369-1.163c.241-.338.568-.602.983-.792.417-.19.891-.285 1.424-.285.53 0 .996.092 1.398.278.403.185.716.438.94.759.224.318.336.678.336 1.08.002.417-.134.76-.408 1.03-.273.27-.623.437-1.052.5v.057c.573.067 1.006.253 1.297.557.294.303.44.683.438 1.138 0 .429-.127.81-.38 1.142-.25.33-.6.59-1.048.78-.446.189-.958.282-1.536.282zm9.659-.101h-1.922l2.497-7.401h2.382l2.497 7.401h-1.923l-1.738-5.536h-.058l-1.735 5.536zm-.256-2.913h4.018v1.36h-4.018v-1.36zm17.123-4.488v7.401h-1.764v-5.97h-2.747v5.97h-1.763v-7.401h6.274zm5.829 0h1.731v2.356c0 .258.044.466.133.625a.81.81 0 00.438.35c.2.073.464.11.791.11a11.16 11.16 0 00.817-.037c.164-.012.316-.027.455-.047.143-.019.253-.04.333-.065v1.377c-.084.027-.2.05-.347.072-.147.022-.304.04-.47.055a12.754 12.754 0 01-.788.043c-.621 0-1.165-.088-1.63-.264-.465-.178-.825-.45-1.08-.817-.256-.366-.383-.833-.383-1.402v-2.356zm4.373 0h1.742v7.401h-1.742v-7.401zm8.877 7.401h-1.923l2.498-7.401h2.381l2.498 7.401h-1.923l-1.738-5.536h-.058l-1.735 5.536zm-.256-2.913h4.018v1.36h-4.018v-1.36zm16.948-1.807h-1.807a1.555 1.555 0 00-.148-.502 1.238 1.238 0 00-.296-.383 1.268 1.268 0 00-.438-.242 1.672 1.672 0 00-.553-.087 1.62 1.62 0 00-.929.264 1.69 1.69 0 00-.596.762c-.137.333-.206.735-.206 1.208 0 .491.07.903.21 1.236.142.33.341.579.596.748.258.166.563.249.914.249a1.8 1.8 0 00.539-.076 1.32 1.32 0 00.43-.22c.125-.1.228-.218.307-.358.082-.142.139-.303.17-.48l1.807.01a2.73 2.73 0 01-.285.969 3.112 3.112 0 01-.647.87c-.275.26-.61.468-1.005.622a3.68 3.68 0 01-1.352.231c-.67 0-1.269-.146-1.799-.44a3.174 3.174 0 01-1.251-1.294c-.306-.566-.459-1.255-.459-2.067 0-.815.155-1.505.466-2.071a3.194 3.194 0 011.262-1.29 3.61 3.61 0 011.781-.441c.448 0 .863.062 1.244.188.38.122.715.303 1.004.542.289.236.524.526.705.87.181.345.293.74.336 1.182zm4.852-1.228v-1.453h6.256v1.453h-2.244v5.948h-1.764V35.78h-2.248zm11.201-1.453h1.785v4.264h.062l2.913-4.264h1.539v7.401h-1.789v-4.271h-.047l-2.949 4.271h-1.514v-7.401z" fill="#0035BE"/><path d="M76.24 8.445v19.146h-2.926L62.756 14.627V27.59h-3.528V8.445h2.927L72.712 21.41V8.445h3.528zm10.792 19.42c-1.477 0-2.908-.21-4.294-.63-1.367-.419-2.452-.975-3.255-1.668l1.231-2.762c.784.62 1.742 1.13 2.872 1.531 1.149.383 2.297.575 3.446.575 1.422 0 2.48-.228 3.173-.684.711-.456 1.067-1.058 1.067-1.805 0-.547-.201-.994-.602-1.34-.383-.365-.875-.648-1.477-.848-.602-.2-1.422-.429-2.462-.684-1.458-.347-2.644-.693-3.555-1.04a6.02 6.02 0 01-2.325-1.613c-.638-.748-.957-1.75-.957-3.009 0-1.057.282-2.015.847-2.872.584-.875 1.45-1.568 2.599-2.078 1.167-.51 2.59-.766 4.267-.766 1.167 0 2.315.146 3.446.437 1.13.292 2.106.712 2.926 1.259l-1.121 2.762a11.065 11.065 0 00-2.626-1.121 9.821 9.821 0 00-2.653-.383c-1.404 0-2.452.237-3.145.71-.675.475-1.012 1.104-1.012 1.888 0 .547.191.994.574 1.34.401.347.903.62 1.505.82.601.201 1.422.43 2.461.685 1.422.328 2.59.674 3.501 1.039a5.761 5.761 0 012.325 1.614c.656.729.984 1.714.984 2.954a4.988 4.988 0 01-.875 2.871c-.565.857-1.431 1.541-2.598 2.052-1.167.51-2.59.766-4.267.766zm26.155-19.42c1.66 0 3.1.274 4.322.82 1.24.548 2.188 1.332 2.844 2.353.657 1.021.985 2.234.985 3.638 0 1.386-.328 2.598-.985 3.637-.656 1.022-1.604 1.806-2.844 2.353-1.222.547-2.662.82-4.322.82h-4.321v5.525h-3.556V8.445h7.877zm-.164 10.613c1.55 0 2.726-.329 3.528-.985.803-.657 1.204-1.596 1.204-2.817 0-1.222-.401-2.16-1.204-2.817-.802-.657-1.978-.985-3.528-.985h-4.157v7.604h4.157zm23.048 4.102h-9.573l-1.887 4.431h-3.665l8.615-19.146h3.501l8.643 19.146h-3.72l-1.914-4.43zm-1.176-2.79l-3.611-8.369-3.583 8.37h7.194zm21.498 7.221l-3.911-5.607a7.26 7.26 0 01-.738.027h-4.322v5.58h-3.556V8.445h7.878c1.659 0 3.099.274 4.321.82 1.24.548 2.188 1.332 2.845 2.353.656 1.021.984 2.234.984 3.638 0 1.44-.355 2.68-1.067 3.72-.692 1.039-1.695 1.814-3.008 2.324l4.403 6.291h-3.829zm-.082-12.335c0-1.222-.401-2.16-1.203-2.817-.803-.657-1.979-.985-3.529-.985h-4.157v7.63h4.157c1.55 0 2.726-.327 3.529-.984.802-.674 1.203-1.623 1.203-2.844zm10.904-3.802h-6.345V8.445h16.246v3.009h-6.345v16.137h-3.556V11.454zm18.045 16.411a14.75 14.75 0 01-4.295-.63c-1.367-.419-2.452-.975-3.254-1.668l1.231-2.762c.784.62 1.741 1.13 2.871 1.531 1.149.383 2.298.575 3.447.575 1.422 0 2.479-.228 3.172-.684.711-.456 1.067-1.058 1.067-1.805 0-.547-.201-.994-.602-1.34-.383-.365-.875-.648-1.477-.848a33.28 33.28 0 00-2.461-.684c-1.459-.347-2.644-.693-3.556-1.04a6.028 6.028 0 01-2.325-1.613c-.638-.748-.957-1.75-.957-3.009 0-1.057.283-2.015.848-2.872.583-.875 1.449-1.568 2.598-2.078 1.167-.51 2.589-.766 4.267-.766 1.167 0 2.316.146 3.446.437 1.131.292 2.106.712 2.927 1.259l-1.122 2.762a11.059 11.059 0 00-2.625-1.121 9.822 9.822 0 00-2.653-.383c-1.404 0-2.453.237-3.146.71-.674.475-1.012 1.104-1.012 1.888 0 .547.192.994.575 1.34.401.347.902.62 1.504.82.602.201 1.422.43 2.462.685 1.422.328 2.589.674 3.5 1.039a5.758 5.758 0 012.325 1.614c.657.729.985 1.714.985 2.954a4.991 4.991 0 01-.875 2.871c-.566.857-1.432 1.541-2.599 2.052-1.167.51-2.589.766-4.266.766z" fill="#150707"/><path d="M10.886 44.952l.787.552v-3.283l-.191-.15c-.15-.118-.298-.237-.445-.359v-7.869a16.455 16.455 0 007.906 6.462l.68.263v-2.776l-.3-.131c-.112-.05-.224-.1-.335-.153v-6.424a8.45 8.45 0 003.247 1.951l-.003.015.483.129a8.45 8.45 0 104.374-16.326 5.86 5.86 0 01-4.341-5.505 13.92 13.92 0 012.105-.16c7.627 0 13.811 6.184 13.811 13.812 0 4.481-2.133 8.464-5.442 10.988l-.197.15v3.116l.773-.504c4.488-2.926 7.456-7.991 7.456-13.75 0-9.058-7.343-16.402-16.401-16.402-.518 0-1.03.024-1.537.071a5.858 5.858 0 016.807-3.138l.483.13.13-.483.261-.978C39.98 6.85 46.535 15.16 46.535 25c0 11.975-9.707 21.683-21.682 21.683-1.936 0-3.812-.254-5.597-.73l-.63-.167v2.767l.381.094c1.873.461 3.831.706 5.846.706 13.45 0 24.352-10.903 24.352-24.353C49.205 11.55 38.302.647 24.853.647 11.403.647.5 11.55.5 25c0 8.254 4.107 15.549 10.386 19.952zm2.73-27.985a13.85 13.85 0 016.578-4.973 8.452 8.452 0 006.226 7.361 5.861 5.861 0 014.32 5.145h-.027v.5a5.86 5.86 0 01-11.721 0v-.5h-.004v-.008a5.86 5.86 0 012.252-4.127l.393-.305-.303-.395-.968-1.261-.305-.398-.397.306a8.451 8.451 0 00-3.258 7.353v10.26a13.788 13.788 0 01-5.324-11.945l.04-.537H8.516l-.03.467a17.4 17.4 0 00-.024.456H8.45v14.817A21.597 21.597 0 013.17 25c0-11.975 9.707-21.683 21.683-21.683.221 0 .442.003.662.01a8.448 8.448 0 00-5.125 5.886 16.436 16.436 0 00-9.515 7.2l-.469.763h3.06l.15-.209z" fill="#0035BE" stroke="#0035BE"/></svg>