<svg width="155" height="38" fill="none" xmlns="http://www.w3.org/2000/svg"><g filter="url(#filter0_dd_1015_109628)"><g clip-path="url(#clip0_1015_109628)"><rect x="3" y="2" width="32" height="32" rx="8" fill="#fff"/><rect x="3" y="2" width="32" height="32" rx="8" fill="url(#paint0_linear_1015_109628)"/><path fill-rule="evenodd" clip-rule="evenodd" d="M19 4.039c-7.71 0-13.961 6.25-13.961 13.96 0 7.711 6.25 13.962 13.961 13.962 7.71 0 13.961-6.25 13.961-13.961 0-7.71-6.25-13.961-13.961-13.961zM4.961 17.999c0-7.753 6.286-14.038 14.039-14.038S33.039 10.246 33.039 18c0 7.753-6.286 14.039-14.039 14.039S4.961 25.753 4.961 17.999z" fill="#D0D5DD"/><path fill-rule="evenodd" clip-rule="evenodd" d="M19 14.078a3.922 3.922 0 100 7.844 3.922 3.922 0 000-7.844zM15 18a4 4 0 118 0 4 4 0 01-8 0z" fill="#D0D5DD"/><path fill-rule="evenodd" clip-rule="evenodd" d="M19 15.32a2.68 2.68 0 100 5.36 2.68 2.68 0 000-5.36zM16.243 18a2.757 2.757 0 115.514 0 2.757 2.757 0 01-5.514 0z" fill="#D0D5DD"/><path d="M18.961 2h.078v32h-.078V2z" fill="#D0D5DD"/><path d="M35 17.96v.079H3v-.078h32z" fill="#D0D5DD"/><path d="M29.602 2h.078v32h-.078V2zM13.64 2h.078v32h-.077V2zm10.642 0h.077v32h-.078V2zM8.32 2h.078v32H8.32V2z" fill="#D0D5DD"/><path d="M35 28.602v.077H3v-.077h32zm0-15.962v.078H3v-.077h32zm0 10.641v.078H3v-.078h32zM35 7.32v.078H3V7.32h32z" fill="#D0D5DD"/><g filter="url(#filter1_dd_1015_109628)"><circle cx="19" cy="18" r="8" fill="#0035BE"/></g><g filter="url(#filter2_b_1015_109628)"><path d="M3 18h32v3.2c0 4.48 0 6.72-.872 8.432a8 8 0 01-3.496 3.496C28.92 34 26.68 34 22.2 34h-6.4c-4.48 0-6.72 0-8.432-.872a8 8 0 01-3.496-3.496C3 27.92 3 25.68 3 21.2V18z" fill="#fff" fill-opacity=".2"/></g></g></g><path d="M90.272 11.6c1.965 0 3.505.47 4.62 1.408 1.115.939 1.672 2.23 1.672 3.872 0 1.643-.557 2.933-1.672 3.872-1.115.924-2.655 1.386-4.62 1.386h-4.136V27h-1.628V11.6h5.764zm-.044 9.108c1.525 0 2.691-.33 3.498-.99.807-.675 1.21-1.62 1.21-2.838 0-1.247-.403-2.2-1.21-2.86-.807-.675-1.973-1.012-3.498-1.012h-4.092v7.7h4.092zm18.741 2.178h-8.58L98.541 27h-1.694l7.04-15.4h1.606l7.04 15.4h-1.716l-1.848-4.114zm-.594-1.32l-3.696-8.272-3.696 8.272h7.392zM125.596 27l-3.52-4.95c-.396.044-.806.066-1.232.066h-4.136V27h-1.628V11.6h5.764c1.966 0 3.506.47 4.62 1.408 1.115.939 1.672 2.23 1.672 3.872 0 1.203-.308 2.222-.924 3.058-.601.821-1.466 1.415-2.596 1.782l3.762 5.28h-1.782zm-4.796-6.27c1.526 0 2.692-.337 3.498-1.012.807-.675 1.21-1.62 1.21-2.838 0-1.247-.403-2.2-1.21-2.86-.806-.675-1.972-1.012-3.498-1.012h-4.092v7.722h4.092zm12.956-7.722h-5.412V11.6h12.452v1.408h-5.412V27h-1.628V13.008zm13.65 14.124a9.988 9.988 0 01-3.3-.55c-1.041-.367-1.848-.85-2.42-1.452l.638-1.254c.558.557 1.298 1.012 2.222 1.364a8.28 8.28 0 002.86.506c1.379 0 2.413-.25 3.102-.748.69-.513 1.034-1.173 1.034-1.98 0-.616-.19-1.107-.572-1.474a3.56 3.56 0 00-1.364-.836c-.542-.205-1.298-.425-2.266-.66-1.158-.293-2.082-.572-2.772-.836a4.757 4.757 0 01-1.782-1.254c-.484-.557-.726-1.313-.726-2.266 0-.777.206-1.481.616-2.112.411-.645 1.042-1.159 1.892-1.54.851-.381 1.907-.572 3.168-.572.88 0 1.738.125 2.574.374.851.235 1.584.565 2.2.99l-.55 1.298a7.315 7.315 0 00-2.068-.946 7.479 7.479 0 00-2.156-.33c-1.349 0-2.368.264-3.058.792-.674.513-1.012 1.18-1.012 2.002 0 .616.184 1.115.55 1.496a3.99 3.99 0 001.408.858c.572.19 1.335.403 2.288.638 1.13.279 2.039.557 2.728.836a4.339 4.339 0 011.782 1.232c.484.543.726 1.283.726 2.222 0 .777-.212 1.489-.638 2.134-.41.63-1.048 1.137-1.914 1.518-.865.367-1.928.55-3.19.55z" fill="#000"/><path d="M51.996 27.352a15.73 15.73 0 01-3.74-.44c-1.203-.293-2.193-.675-2.97-1.144l1.672-3.784c.733.425 1.547.77 2.442 1.034.91.25 1.79.374 2.64.374.499 0 .887-.03 1.166-.088.293-.073.506-.169.638-.286a.633.633 0 00.198-.462c0-.279-.154-.499-.462-.66-.308-.161-.719-.293-1.232-.396a44.24 44.24 0 00-1.65-.352 17.79 17.79 0 01-1.826-.506 7.362 7.362 0 01-1.672-.814 3.878 3.878 0 01-1.21-1.32c-.308-.557-.462-1.247-.462-2.068 0-.953.264-1.819.792-2.596.543-.792 1.342-1.423 2.398-1.892 1.07-.47 2.398-.704 3.982-.704 1.041 0 2.068.11 3.08.33a9.73 9.73 0 012.728 1.012l-1.562 3.762a11.693 11.693 0 00-2.222-.858 7.89 7.89 0 00-2.068-.286c-.499 0-.895.044-1.188.132-.293.088-.506.205-.638.352a.758.758 0 00-.176.484c0 .264.154.477.462.638.308.147.711.271 1.21.374.513.103 1.07.213 1.672.33.616.117 1.225.279 1.826.484a6.92 6.92 0 011.65.814c.513.337.924.777 1.232 1.32.308.543.462 1.217.462 2.024 0 .939-.271 1.804-.814 2.596-.528.777-1.32 1.408-2.376 1.892-1.056.47-2.383.704-3.982.704zM60.713 27V11.6h5.192V27h-5.192zm7.691 0V11.6h4.268l6.16 10.054h-2.244L82.572 11.6h4.268l.044 15.4h-4.73l-.044-8.272h.748l-4.092 6.886h-2.288l-4.268-6.886h.924V27h-4.73z" fill="#000"/><defs><filter id="filter0_dd_1015_109628" x="0" y="0" width="38" height="38" filterUnits="userSpaceOnUse" color-interpolation-filters="sRGB"><feFlood flood-opacity="0" result="BackgroundImageFix"/><feColorMatrix in="SourceAlpha" values="0 0 0 0 0 0 0 0 0 0 0 0 0 0 0 0 0 0 127 0" result="hardAlpha"/><feOffset dy="1"/><feGaussianBlur stdDeviation="1"/><feColorMatrix values="0 0 0 0 0.0627451 0 0 0 0 0.0941176 0 0 0 0 0.156863 0 0 0 0.06 0"/><feBlend in2="BackgroundImageFix" result="effect1_dropShadow_1015_109628"/><feColorMatrix in="SourceAlpha" values="0 0 0 0 0 0 0 0 0 0 0 0 0 0 0 0 0 0 127 0" result="hardAlpha"/><feOffset dy="1"/><feGaussianBlur stdDeviation="1.5"/><feColorMatrix values="0 0 0 0 0.0627451 0 0 0 0 0.0941176 0 0 0 0 0.156863 0 0 0 0.1 0"/><feBlend in2="effect1_dropShadow_1015_109628" result="effect2_dropShadow_1015_109628"/><feBlend in="SourceGraphic" in2="effect2_dropShadow_1015_109628" result="shape"/></filter><filter id="filter1_dd_1015_109628" x="8" y="8" width="22" height="22" filterUnits="userSpaceOnUse" color-interpolation-filters="sRGB"><feFlood flood-opacity="0" result="BackgroundImageFix"/><feColorMatrix in="SourceAlpha" values="0 0 0 0 0 0 0 0 0 0 0 0 0 0 0 0 0 0 127 0" result="hardAlpha"/><feOffset dy="1"/><feGaussianBlur stdDeviation="1"/><feColorMatrix values="0 0 0 0 0.0627451 0 0 0 0 0.0941176 0 0 0 0 0.156863 0 0 0 0.06 0"/><feBlend in2="BackgroundImageFix" result="effect1_dropShadow_1015_109628"/><feColorMatrix in="SourceAlpha" values="0 0 0 0 0 0 0 0 0 0 0 0 0 0 0 0 0 0 127 0" result="hardAlpha"/><feOffset dy="1"/><feGaussianBlur stdDeviation="1.5"/><feColorMatrix values="0 0 0 0 0.0627451 0 0 0 0 0.0941176 0 0 0 0 0.156863 0 0 0 0.1 0"/><feBlend in2="effect1_dropShadow_1015_109628" result="effect2_dropShadow_1015_109628"/><feBlend in="SourceGraphic" in2="effect2_dropShadow_1015_109628" result="shape"/></filter><filter id="filter2_b_1015_109628" x="-2" y="13" width="42" height="26" filterUnits="userSpaceOnUse" color-interpolation-filters="sRGB"><feFlood flood-opacity="0" result="BackgroundImageFix"/><feGaussianBlur in="BackgroundImageFix" stdDeviation="2.5"/><feComposite in2="SourceAlpha" operator="in" result="effect1_backgroundBlur_1015_109628"/><feBlend in="SourceGraphic" in2="effect1_backgroundBlur_1015_109628" result="shape"/></filter><linearGradient id="paint0_linear_1015_109628" x1="19" y1="2" x2="19" y2="34" gradientUnits="userSpaceOnUse"><stop stop-color="#fff"/><stop offset="1" stop-color="#D0D5DD"/></linearGradient><clipPath id="clip0_1015_109628"><rect x="3" y="2" width="32" height="32" rx="8" fill="#fff"/></clipPath></defs></svg>