<svg width="24" height="24" fill="none" xmlns="http://www.w3.org/2000/svg"><path d="M21.21 4.662a12.077 12.077 0 011.42 2.386l-10.786 8.058-4.508-2.864V8.797l4.508 2.864 9.367-6.999zM2.736 12c0-.155.003-.308.01-.461l-2.731-.136a12.108 12.108 0 00.885 5.19 11.979 11.979 0 002.568 3.89l1.938-1.962a9.204 9.204 0 01-1.977-2.99A9.303 9.303 0 012.736 12zm9.106-9.228c.152 0 .304.006.454.013l.137-2.77a12.884 12.884 0 00-.591-.013 11.673 11.673 0 00-4.533.91 11.8 11.8 0 00-3.84 2.604L5.407 5.48a9.067 9.067 0 012.95-2.005 8.969 8.969 0 013.485-.703zm0 18.456c-.152 0-.304 0-.455-.012l-.137 2.768a11.664 11.664 0 005.123-.896 11.793 11.793 0 003.838-2.603l-1.934-1.963a9.073 9.073 0 01-2.951 2.003 8.973 8.973 0 01-3.484.703z" fill="#0035BE"/><path d="M16.974 4.382l2.303-1.72A11.69 11.69 0 0011.837 0v2.771a8.975 8.975 0 015.137 1.61zM23.681 12c.002-.72-.06-1.44-.186-2.15l-2.548 1.903V12c0 1.29-.266 2.565-.783 3.743a9.2 9.2 0 01-2.217 3.097l1.839 2.059a11.963 11.963 0 002.88-4.03A12.103 12.103 0 0023.682 12zM11.84 21.228c-1.271 0-2.53-.27-3.692-.793a9.092 9.092 0 01-3.057-2.247l-2.03 1.862a11.816 11.816 0 003.976 2.92A11.662 11.662 0 0011.841 24v-2.772zM5.735 5.16L3.898 3.101a11.963 11.963 0 00-2.882 4.03A12.105 12.105 0 000 12h2.736a9.313 9.313 0 01.782-3.743A9.201 9.201 0 015.735 5.16z" fill="#0035BE"/></svg>