<svg width="25" height="24" fill="none" xmlns="http://www.w3.org/2000/svg"><path d="M2.9 5.224l2.907 5.195v3.169l-2.903 5.185L2.9 5.224zm11.159 3.305l2.723-1.67 5.574-.005-8.297 5.083V8.529z" fill="#0035BE"/><path d="M14.044 5.193l.016 6.878-2.914-1.79V0l2.898 5.193z" fill="#0035BE"/><path d="M22.357 6.854l-5.574.005-2.739-1.666L11.146 0l11.21 6.854z" fill="#AAC0F9"/><path d="M14.06 18.801v-3.337l-2.914-1.756L11.149 24l2.912-5.199z" fill="#0035BE"/><path d="M16.776 17.147L5.806 10.42 2.9 5.224l19.445 11.917-5.569.006z" fill="#0035BE"/><path d="M11.148 24l2.912-5.199 2.716-1.654 5.569-.006L11.148 24z" fill="#0B42CE" fill-opacity=".6"/><path d="M2.904 18.773l8.267-5.064-2.78-1.706-2.584 1.585-2.903 5.185z" fill="#AAC0F9"/></svg>