<svg width="49" height="36" fill="none" xmlns="http://www.w3.org/2000/svg"><path d="M22.43 1.5c.389.107.717.348 1.064.54 4.17 2.387 8.337 4.777 12.505 7.166.904.533 1.836 1.02 2.722 1.582-.522.084-1.052.064-1.58.058-2.12-.002-4.238.002-6.357-.002-1.447-.81-2.871-1.663-4.324-2.463-.383-.493-.65-1.064-.976-1.595-.996-1.73-2.026-3.441-3.003-5.182l-.05-.104z" fill="#818EA7"/><path d="M22.48 1.604c.978 1.741 2.007 3.453 3.004 5.183.327.53.593 1.101.976 1.595.02 1.664.006 3.327.007 4.99-.041 1.52.07 3.047-.06 4.563-1.333-.732-2.64-1.508-3.965-2.255-.035-4.417 0-8.834-.018-13.252-.004-.275.01-.552.056-.824zm-12.48 7l.167.105c.12.256.232.515.375.758.88 1.482 1.731 2.984 2.607 4.47.317.535.601 1.093.969 1.597a3.507 3.507 0 00-.096.923c.027 1.33-.02 2.66.03 3.99-.165.366-.377.709-.575 1.058-.98 1.677-1.957 3.354-2.932 5.033-.137.238-.25.489-.374.734l-.161.129c-.02-6.265-.001-12.531-.01-18.797z" fill="#818EA7"/><path d="M10.167 8.71c.143.052.285.108.42.179 3.95 2.267 7.899 4.535 11.855 6.79 1.325.748 2.632 1.524 3.965 2.255.028.017.086.048.113.063 3.68 2.16 7.404 4.247 11.098 6.382.372.235.8.391 1.117.707-2.408.062-4.819.004-7.226.03-.305-.009-.637.041-.908-.131-1.361-.778-2.719-1.562-4.083-2.333-1.357-.778-2.705-1.573-4.078-2.322l-.063-.036c-1.35-.805-2.727-1.56-4.081-2.356-1.39-.808-2.796-1.585-4.178-2.404-.368-.504-.652-1.062-.969-1.596-.875-1.487-1.726-2.988-2.606-4.47-.144-.243-.257-.503-.376-.758z" fill="#818EA7"/><path d="M38.72 10.788l.065-.008.092.103a8717.236 8717.236 0 01-11.311 6.484c-.36.193-.703.41-1.046.63l-.114-.064c.13-1.515.02-3.041.06-4.561 1.433-.854 2.922-1.616 4.317-2.529 2.12.005 4.239 0 6.358.002.527.007 1.057.027 1.58-.057zm-20.425 7.15c1.354.796 2.732 1.551 4.082 2.356a5.516 5.516 0 01-.786.494c-3.671 2.111-7.353 4.206-11.022 6.32a3.309 3.309 0 01-.398.164c.124-.245.237-.496.373-.733.976-1.68 1.953-3.357 2.933-5.034.198-.349.41-.691.576-1.057 1.231-.63 2.401-1.373 3.615-2.033.235-.123.445-.286.627-.477zm4.145 2.392c1.373.748 2.72 1.544 4.078 2.321-.02 1.626-.033 3.253.006 4.88-1.393 2.268-2.665 4.61-4.048 6.885a3.454 3.454 0 01-.065-.51c.001-4.344.002-8.689-.001-13.032a7.4 7.4 0 01.03-.544z" fill="#818EA7"/><path d="M29.67 25.779c.486-.24.926-.678 1.506-.639 1.951.009 3.903.001 5.855.005.559.004 1.12-.028 1.678.032-.25.214-.541.37-.829.525-4.167 2.384-8.33 4.771-12.495 7.16-.991.535-1.931 1.172-2.959 1.638l.05-.084c1.383-2.275 2.655-4.617 4.048-6.886 1.09-.502 2.09-1.18 3.146-1.752z" fill="#818EA7"/></svg>