<svg width="49" height="36" fill="none" xmlns="http://www.w3.org/2000/svg"><path d="M35.7 10.025a8.478 8.478 0 00-.5-.7c-.1-.1-.15-.2-.25-.3l-.15-.15-15.7 9-7.55-4.4a7.31 7.31 0 00-.25 1c-.05.15-.05.3-.1.45l7.95 4.6 16.55-9.5z" fill="#818EA7"/><path d="M31.25 5.825a15.903 15.903 0 00-1.6-.8l-10.5 6.05-4.7-2.7c-.3.4-.65.75-.9 1.15l5.65 3.25 12.05-6.95z" fill="#818EA7"/><path d="M33.8 7.725a11.56 11.56 0 00-1.2-1l-13.45 7.75-6.4-3.7c-.25.45-.45.85-.65 1.3l7.1 4.1 14.6-8.45z" fill="#818EA7"/><path d="M12.8 24.275a13.447 13.447 0 003.85 4.2 12.903 12.903 0 003.4 1.75c.536.196 1.088.347 1.65.45.793.15 1.595.25 2.4.3h.75c.451-.008.902-.042 1.35-.1a14.512 14.512 0 005.35-1.85 13.275 13.275 0 003.95-3.7 13.088 13.088 0 002.25-5.2l.15-.75c.1-.612.15-1.23.15-1.85v-.35a10.197 10.197 0 00-.15-1.7 11.655 11.655 0 00-1.35-4.1l-17.4 9.9-8.15-4.7c-.041.23-.058.466-.05.7-.008.887.059 1.774.2 2.65a13.08 13.08 0 001.65 4.35z" fill="#818EA7"/></svg>