<svg width="49" height="36" fill="none" xmlns="http://www.w3.org/2000/svg"><path d="M32.824 21.692c-.3-.1-.3.25-.25.45a1.8 1.8 0 00.55 1c.15.1.35-.1.2-.65a1.02 1.02 0 00-.5-.8zm-2.2.95h-.1a.58.58 0 00-.5.1.795.795 0 00-.1 1.15c.13.174.302.312.5.4h.1a.58.58 0 00.5-.1.794.794 0 00.1-1.15.946.946 0 00-.5-.4zm7.9 8.05a9.107 9.107 0 00-3.85-3.8 12.593 12.593 0 00-1.7-.75 28.39 28.39 0 00-3.8-.75 7.127 7.127 0 01-2.95-1.3 5.153 5.153 0 01-1.25-1.3c-.05-.1-.4-.5-.35-.6a4.5 4.5 0 00.2 2.15c-4.05-.2-7.55-2.4-9.2-5.15-3-5-1.95-11.05 2.05-13.7 3.95-2.65 10.05-.8 13.3 4.05 2.05 3.05 2.55 6.55 1.7 9.4v.05a3.569 3.569 0 00-3.3-.6c1.75-.2 3.1 1.2 3.1 1.2.197.188.38.388.55.6.05.05.1.1.1.15a4.41 4.41 0 01.85 2c3.45-4.35 4-10.4.95-15.05-3.85-5.95-12.1-7.5-18.4-3.4-6.25 4.05-8.25 12.2-4.35 18.2 3.2 4.9 10.65 6.4 14.9 5.05a11.06 11.06 0 0111 3.55c.207.24.375.51.5.8a.155.155 0 00.2.1c.05-.05.15-.15-.25-.9z" fill="#818EA7"/></svg>