<svg width="49" height="36" fill="none" xmlns="http://www.w3.org/2000/svg"><path fill-rule="evenodd" clip-rule="evenodd" d="M20.6 12.112h3.238l-2.026 11.625h-3.237l2.024-11.625zm12.976.376A8.527 8.527 0 0030.673 12c-3.2 0-5.454 1.577-5.473 3.837-.018 1.67 1.609 2.602 2.838 3.158 1.26.57 1.684.933 1.678 1.442-.008.78-1.007 1.135-1.938 1.135-1.296 0-1.985-.176-3.048-.61l-.418-.185-.454 2.603c.756.324 2.155.605 3.607.62 3.405 0 5.615-1.559 5.64-3.972.012-1.322-.85-2.329-2.72-3.158-1.131-.538-1.824-.897-1.817-1.442 0-.483.587-1 1.855-1a6.09 6.09 0 012.424.446l.29.134.439-2.52zm8.303-.275h-2.502c-.776 0-1.356.207-1.696.964l-4.81 10.654h3.4s.557-1.432.682-1.747l4.148.005c.097.407.394 1.742.394 1.742H44.5l-2.62-11.618zm-3.994 7.493c.268-.67 1.29-3.25 1.29-3.25-.018.032.267-.672.43-1.109l.219 1.002.75 3.357h-2.689zm-22.009-7.495l-3.17 7.928-.338-1.611c-.59-1.857-2.43-3.87-4.486-4.877l2.9 10.167 3.426-.003 5.099-11.604h-3.43z" fill="#818EA7"/><path fill-rule="evenodd" clip-rule="evenodd" d="M9.764 12.204H4.54l-.041.242c4.063.962 6.751 3.288 7.867 6.082l-1.135-5.342c-.196-.737-.765-.956-1.468-.982z" fill="#818EA7"/></svg>