<svg width="49" height="36" fill="none" xmlns="http://www.w3.org/2000/svg"><path fill-rule="evenodd" clip-rule="evenodd" d="M18.667 27a9.254 9.254 0 006.482-2.636A8.918 8.918 0 0027.834 18a8.918 8.918 0 00-2.685-6.364A9.254 9.254 0 0018.667 9a9.254 9.254 0 00-6.482 2.636A8.918 8.918 0 009.5 18c0 2.387.966 4.676 2.685 6.364A9.254 9.254 0 0018.667 27z" fill="#818EA7"/><path fill-rule="evenodd" clip-rule="evenodd" d="M30.333 27a9.254 9.254 0 006.482-2.636A8.918 8.918 0 0039.5 18a8.918 8.918 0 00-2.685-6.364A9.254 9.254 0 0030.333 9a9.254 9.254 0 00-6.482 2.636A8.918 8.918 0 0021.166 18c0 2.387.966 4.676 2.685 6.364A9.254 9.254 0 0030.333 27z" fill="#495973"/><path fill-rule="evenodd" clip-rule="evenodd" d="M24.5 11.057a9.006 9.006 0 00-2.46 3.104A8.846 8.846 0 0021.166 18a8.846 8.846 0 00.874 3.839 9.006 9.006 0 002.46 3.104 9.006 9.006 0 002.46-3.104c.576-1.2.874-2.512.873-3.839a8.846 8.846 0 00-.873-3.839 9.007 9.007 0 00-2.46-3.104z" fill="#546482"/></svg>