<svg width="44" height="48" fill="none" xmlns="http://www.w3.org/2000/svg"><path opacity=".8" d="M22 2C9.85 2 0 11.85 0 24s9.85 22 22 22c10.901 0 19.95-7.928 21.696-18.333h-.158c-1.628 6.325-7.37 11-14.205 11-8.1 0-14.666-6.567-14.666-14.667S21.233 9.333 29.333 9.333c6.834 0 12.577 4.675 14.205 11h.158C41.95 9.928 32.9 2 22 2z" fill="#fff"/><path d="M0 24C0 11.85 9.85 2 22 2c10.901 0 19.95 7.928 21.696 18.333H28.87c-1.628-6.325-7.37-11-14.204-11C6.567 9.333 0 15.9 0 24zm0 0c0 12.15 9.85 22 22 22 10.901 0 19.95-7.928 21.696-18.333H28.87c-1.628 6.325-7.37 11-14.204 11C6.567 38.667 0 32.1 0 24z" fill="#fff"/></svg>