<svg width="44" height="48" fill="none" xmlns="http://www.w3.org/2000/svg"><path opacity=".7" d="M13.277 22.318c.823-3.068 3.977-6.222 7.045-7.044l19.129-5.127c3.068-.822 4.889.999 4.067 4.067l-5.127 19.13c-.822 3.067-3.976 6.221-7.044 7.044l-19.13 5.126c-3.067.822-4.888-.998-4.066-4.067l5.127-19.129z" fill="#fff"/><path d="M5.609 14.65c.822-3.069 3.976-6.223 7.044-7.045l19.13-5.126c3.067-.823 4.888.998 4.066 4.066l-5.126 19.13c-.823 3.068-3.976 6.221-7.045 7.044L4.55 37.845c-3.068.822-4.889-.998-4.067-4.067L5.61 14.65z" fill="#fff"/></svg>