<svg width="39" height="48" fill="none" xmlns="http://www.w3.org/2000/svg"><path d="M33.88 24a19.363 19.363 0 01-14.468 6.47A19.366 19.366 0 014.942 24a19.364 19.364 0 0114.47-6.47A19.365 19.365 0 0133.881 24z" fill="#fff"/><path opacity=".6" fill-rule="evenodd" clip-rule="evenodd" d="M0 36.941C0 26.221 8.691 17.53 19.412 17.53c-5.75 0-10.915 2.5-14.47 6.471a19.364 19.364 0 0014.47 6.47 19.365 19.365 0 0014.469-6.47 19.34 19.34 0 014.943 12.941v7.334c0 .953-.773 1.725-1.726 1.725H1.725A1.725 1.725 0 010 44.275V36.94zM33.88 24z" fill="#fff"/><path opacity=".8" fill-rule="evenodd" clip-rule="evenodd" d="M12.13 29.059A19.454 19.454 0 014.944 24a19.364 19.364 0 0114.469-6.47A19.365 19.365 0 0133.882 24a19.34 19.34 0 004.943-12.941V3.725c0-.952-.773-1.725-1.726-1.725H1.725C.773 2 0 2.773 0 3.725v7.334c0 8.146 5.018 15.12 12.13 18z" fill="#fff"/></svg>