<svg width="44" height="48" fill="none" xmlns="http://www.w3.org/2000/svg"><path d="M15.714 33.429c8.68 0 15.715-7.036 15.715-15.715 0-.983-.09-1.946-.264-2.88a15.802 15.802 0 00-2.88-.263c-8.678 0-15.713 7.036-15.713 15.715 0 .983.09 1.946.263 2.88.933.172 1.896.263 2.88.263z" fill="#fff"/><path opacity=".8" fill-rule="evenodd" clip-rule="evenodd" d="M12.835 33.165C5.53 31.813 0 25.41 0 17.715 0 9.034 7.036 2 15.714 2c7.696 0 14.099 5.531 15.451 12.835a15.802 15.802 0 00-2.88-.264c-8.678 0-15.714 7.036-15.714 15.715 0 .983.09 1.946.264 2.88z" fill="#fff"/><path opacity=".6" fill-rule="evenodd" clip-rule="evenodd" d="M15.714 33.428c8.679 0 15.715-7.035 15.715-15.714 0-.983-.09-1.946-.264-2.88C38.47 16.188 44 22.59 44 30.287 44 38.964 36.965 46 28.286 46c-7.696 0-14.099-5.531-15.451-12.835a15.79 15.79 0 002.88.264z" fill="#fff"/></svg>