<svg width="24" height="24" fill="none" xmlns="http://www.w3.org/2000/svg"><path fill-rule="evenodd" clip-rule="evenodd" d="M13.33 2.782A9.905 9.905 0 007.158 4l-.417.25a9.222 9.222 0 00-3.98 5.444 9.35 9.35 0 00.87 6.943c1.437 2.53 3.693 3.815 5.864 4.35 2.168.534 4.258.32 5.37-.16.752-.322.963-.985.798-1.498a.971.971 0 00-.507-.589c-.25-.116-.566-.128-.923.02-1.368.56-3.21.561-4.912-.053-1.702-.613-3.26-1.84-4.065-3.729a7.457 7.457 0 01-.307-4.841 7.358 7.358 0 012.728-3.982 7.982 7.982 0 019.606.759c1.684 1.493 2.17 3.53 2.084 5.355a8.787 8.787 0 01-.478 2.477c-.25.707-.561 1.259-.855 1.565a.43.43 0 01-.663-.135.446.446 0 01-.044-.256V8.298c0-.61-.467-.932-.928-.945a.931.931 0 00-.638.215.859.859 0 00-.286.581 5.459 5.459 0 00-3.78-1.604h-.002A5.555 5.555 0 007.867 8.23a5.715 5.715 0 00-1.614 3.9v.002a5.714 5.714 0 001.625 3.872 5.554 5.554 0 003.807 1.672h.002a5.385 5.385 0 003.742-1.536v.421c.033.412.175.807.41 1.144.235.337.556.603.928.771a2.238 2.238 0 002.299-.273c1.599-1.27 2.443-3.53 2.482-5.898.039-2.37-.73-4.86-2.367-6.595a9.972 9.972 0 00-5.851-2.927zm-1.659 13.02a3.26 3.26 0 01-1.345-.255 3.301 3.301 0 01-1.128-.786 3.36 3.36 0 01-.717-1.183 3.395 3.395 0 01-.183-1.376c0-1.968 1.212-3.703 3.381-3.703h.071a3.406 3.406 0 012.484.948 3.5 3.5 0 011.063 2.466v.434a3.614 3.614 0 01-1.114 2.482 3.51 3.51 0 01-2.512.972z" fill="#0035BE"/></svg>