<svg width="24" height="24" fill="none" xmlns="http://www.w3.org/2000/svg"><path d="M9.184 3.495a9.206 9.206 0 00-5.203 4.458 8.795 8.795 0 00-.8 2.28 8.8 8.8 0 00.376 4.86 8.988 8.988 0 002.912 3.952 9.127 9.127 0 003.34 1.649 9.985 9.985 0 004.695.051 8.426 8.426 0 003.763-1.917 8.101 8.101 0 002.324-3.732c.45-1.553.53-3.187.233-4.774h-8.638v3.509h5.007c-.1.56-.314 1.095-.63 1.572a4.273 4.273 0 01-1.207 1.206 5.253 5.253 0 01-2.027.783 6.108 6.108 0 01-2.191 0 5.518 5.518 0 01-2.044-.866 5.57 5.57 0 01-2.117-2.762 5.32 5.32 0 010-3.5A5.595 5.595 0 018.311 8.14a5.41 5.41 0 012.52-1.442 5.493 5.493 0 012.916.058 4.935 4.935 0 011.98 1.14l1.688-1.653c.297-.296.61-.581.895-.887a9.028 9.028 0 00-2.938-1.809 9.448 9.448 0 00-6.188-.052z" fill="#0035BE"/></svg>