<svg width="24" height="24" fill="none" xmlns="http://www.w3.org/2000/svg"><path d="M20 15.69c-.053.151-.105.314-.164.475-.49 1.345-1.234 2.539-2.137 3.633a4.66 4.66 0 01-.588.585c-.414.355-.891.57-1.443.59a2.86 2.86 0 01-1.196-.221c-.277-.115-.55-.244-.832-.348-.915-.336-1.824-.292-2.723.068-.324.13-.644.274-.975.387a2.3 2.3 0 01-1.184.105c-.353-.067-.662-.233-.949-.448-.356-.267-.654-.592-.934-.936a12.857 12.857 0 01-2.64-5.554 10.225 10.225 0 01-.22-2.697c.064-1.091.315-2.13.89-3.066.722-1.177 1.741-1.948 3.081-2.266.807-.192 1.59-.113 2.36.186.404.157.81.313 1.216.467a1.51 1.51 0 001.12-.003c.415-.16.83-.32 1.246-.476.427-.158.86-.287 1.313-.323a4.873 4.873 0 011.982.251 4.345 4.345 0 012.213 1.652l.042.063c-1.412.998-2.216 2.315-2.1 4.099.119 1.785 1.067 2.992 2.622 3.776zM12.078 5.626a2.98 2.98 0 001.204-.226c1.759-.707 2.678-2.592 2.65-4.034-.002-.116-.01-.232-.014-.367-.181.028-.346.04-.504.08-1.285.32-2.273 1.046-2.923 2.221-.38.689-.591 1.42-.527 2.219.005.084.035.106.114.107z" fill="#0035BE"/></svg>